# xmcd CD database file
#
# Track frame offsets:
#	150
#	18105
#	39700
#	66202
#	89680
#	114520
#	140625
#	147452
#	168912
#	198585
#	211207
#	227255
#
# Disc length: 3224 seconds
#
# Revision: 2
# Processed by: cddbd v1.5.1PL0 Copyright (c) Steve Scherf et al.
# Submitted via: CDex 1.51
#
DISCID=a90c960c
DTITLE=Various Artist - Electronic Intercourse
DYEAR=1991
DGENRE=Blues
TTITLE0=Derrida Dance Corps - Hanging around
TTITLE1=Derrida Dance Corps - The Empire
TTITLE2=925 - D.N.S
TTITLE3=925 - Heroine
TTITLE4=The Wounded Meadow - Skyscrape
TTITLE5=The Wounded Meadow - Hatch
TTITLE6=Wichful Thinking - Return (Autobahn)
TTITLE7=Wichful Thinking - Return (Radio mix)
TTITLE8=Wichful Thinking - Chained
TTITLE9=Slim&Lisa - Uranus (Psycho version)
TTITLE10=Slim&Lisa - Rymdjazz (Treated mix)
TTITLE11=Slim&Lisa - In Memorian
EXTD=YEAR: 1991
EXTT0=
EXTT1=
EXTT2=
EXTT3=
EXTT4=
EXTT5=
EXTT6=
EXTT7=
EXTT8=
EXTT9=
EXTT10=
EXTT11=
PLAYORDER=
